<?xml version="1.0" encoding="UTF-8" standalone="no"?>
<!--
version: "2.19"
unicode: "fa83"
-->

<svg
   width="24"
   height="24"
   viewBox="0 0 24 24"
   fill="currentColor"
   version="1.1"
   id="svg9"
   sodipodi:docname="olt.svg"
   inkscape:version="1.3.2 (091e20e, 2023-11-25, custom)"
   xmlns:inkscape="http://www.inkscape.org/namespaces/inkscape"
   xmlns:sodipodi="http://sodipodi.sourceforge.net/DTD/sodipodi-0.dtd"
   xmlns="http://www.w3.org/2000/svg"
   xmlns:svg="http://www.w3.org/2000/svg">
  <defs
     id="defs9" />
  <sodipodi:namedview
     id="namedview9"
     pagecolor="#ffffff"
     bordercolor="#000000"
     borderopacity="0.25"
     inkscape:showpageshadow="2"
     inkscape:pageopacity="0.0"
     inkscape:pagecheckerboard="0"
     inkscape:deskcolor="#d1d1d1"
     inkscape:zoom="30.041667"
     inkscape:cx="12"
     inkscape:cy="12"
     inkscape:window-width="1920"
     inkscape:window-height="991"
     inkscape:window-x="-9"
     inkscape:window-y="-9"
     inkscape:window-maximized="1"
     inkscape:current-layer="svg9" />
  <rect
     style="fill:#1bade0;stroke:#ecf1f1;stroke-width:1.499;stroke-linecap:round;stroke-linejoin:round;stroke-dasharray:none;stroke-opacity:1;fill-opacity:1"
     id="rect2"
     width="22.048159"
     height="22.048159"
     x="0.96170563"
     y="1.0379879"
     rx="11.024079" />
  <path
     d="M 13.964897,8.6143352 H 9.9023133 a 1.3541944,1.3541944 0 0 0 -1.3541945,1.354194 v 4.0625828 a 1.3541944,1.3541944 0 0 0 1.3541945,1.354195 h 4.0625837 a 1.3541944,1.3541944 0 0 0 1.354194,-1.354195 V 9.9685292 a 1.3541944,1.3541944 0 0 0 -1.354194,-1.354194 z"
     id="path1"
     style="fill:#ffffff;stroke-width:0.677097" />
  <path
     d="m 6.5168272,8.6143352 a 0.67709721,0.67709721 0 0 1 0.07922,1.349454 l -0.07922,0.0047 H 5.83973 A 0.67709721,0.67709721 0 0 1 5.76051,8.6190342 l 0.07922,-0.0047 z"
     id="path2"
     style="fill:#ffffff;stroke-width:0.677097" />
  <path
     d="m 6.5168272,14.031112 a 0.67709721,0.67709721 0 0 1 0.07922,1.349455 l -0.07922,0.0047 H 5.83973 A 0.67709721,0.67709721 0 0 1 5.76051,14.035812 l 0.07922,-0.0047 z"
     id="path3"
     style="fill:#ffffff;stroke-width:0.677097" />
  <path
     d="m 9.225216,5.2288488 a 0.67709721,0.67709721 0 0 1 0.6723576,0.5978768 l 0.00474,0.07922 v 0.6770976 a 0.67709721,0.67709721 0 0 1 -1.3494548,0.07922 l -0.00474,-0.07922 V 5.905946 A 0.67709721,0.67709721 0 0 1 9.225216,5.2288488 Z"
     id="path4"
     style="fill:#ffffff;stroke-width:0.677097" />
  <path
     d="m 14.641994,5.2288488 a 0.67709721,0.67709721 0 0 1 0.672358,0.5978768 l 0.0047,0.07922 v 0.6770976 a 0.67709721,0.67709721 0 0 1 -1.349454,0.07922 l -0.0047,-0.07922 V 5.905946 a 0.67709721,0.67709721 0 0 1 0.677096,-0.6770972 z"
     id="path5"
     style="fill:#ffffff;stroke-width:0.677097" />
  <path
     d="m 18.02748,8.6143352 a 0.67709721,0.67709721 0 0 1 0.07922,1.349454 l -0.07922,0.0047 h -0.677097 a 0.67709721,0.67709721 0 0 1 -0.07922,-1.349455 l 0.07922,-0.0047 z"
     id="path6"
     style="fill:#ffffff;stroke-width:0.677097" />
  <path
     d="m 18.02748,14.031112 a 0.67709721,0.67709721 0 0 1 0.07922,1.349455 l -0.07922,0.0047 h -0.677097 a 0.67709721,0.67709721 0 0 1 -0.07922,-1.349455 l 0.07922,-0.0047 z"
     id="path7"
     style="fill:#ffffff;stroke-width:0.677097" />
  <path
     d="m 9.225216,16.739501 a 0.67709721,0.67709721 0 0 1 0.6723576,0.597877 l 0.00474,0.07922 v 0.677098 a 0.67709721,0.67709721 0 0 1 -1.3494548,0.07922 l -0.00474,-0.07922 V 17.416598 A 0.67709721,0.67709721 0 0 1 9.225216,16.739501 Z"
     id="path8"
     style="fill:#ffffff;stroke-width:0.677097" />
  <path
     d="m 14.641994,16.739501 a 0.67709721,0.67709721 0 0 1 0.672358,0.597877 l 0.0047,0.07922 v 0.677098 a 0.67709721,0.67709721 0 0 1 -1.349454,0.07922 l -0.0047,-0.07922 v -0.677098 a 0.67709721,0.67709721 0 0 1 0.677096,-0.677097 z"
     id="path9"
     style="fill:#ffffff;stroke-width:0.677097" />
</svg>
