<?xml version="1.0" encoding="UTF-8" standalone="no"?>
<svg
   height="24px"
   viewBox="0 -960 960 960"
   width="24px"
   fill="#1f1f1f"
   version="1.1"
   id="svg1"
   sodipodi:docname="manga.svg"
   inkscape:version="1.3.2 (091e20e, 2023-11-25, custom)"
   xmlns:inkscape="http://www.inkscape.org/namespaces/inkscape"
   xmlns:sodipodi="http://sodipodi.sourceforge.net/DTD/sodipodi-0.dtd"
   xmlns="http://www.w3.org/2000/svg"
   xmlns:svg="http://www.w3.org/2000/svg">
  <defs
     id="defs1" />
  <sodipodi:namedview
     id="namedview1"
     pagecolor="#ffffff"
     bordercolor="#000000"
     borderopacity="0.25"
     inkscape:showpageshadow="2"
     inkscape:pageopacity="0.0"
     inkscape:pagecheckerboard="0"
     inkscape:deskcolor="#d1d1d1"
     inkscape:zoom="30.041667"
     inkscape:cx="12"
     inkscape:cy="12"
     inkscape:window-width="1920"
     inkscape:window-height="991"
     inkscape:window-x="-9"
     inkscape:window-y="-9"
     inkscape:window-maximized="1"
     inkscape:current-layer="svg1" />
  <rect
     style="fill:#000000;stroke:#ecf1f1;stroke-width:59.96;stroke-linecap:round;stroke-linejoin:round;stroke-opacity:1;stroke-dasharray:none"
     id="rect2"
     width="881.92633"
     height="881.92633"
     x="40.368298"
     y="-919.63165"
     rx="440.96317" />
  <path
     d="m 326.39852,-404.3828 h 47.30467 v -141.91401 h -47.30467 z m 118.26167,0 h 47.30467 v -141.91401 h -47.30467 z m 118.26168,0 h 47.30467 v -141.91401 h -47.30467 z m -283.82802,47.30467 H 657.5312 V -593.60148 H 279.09385 Z m 0,0 v -236.52335 z m 23.65233,94.60933 v -47.30466 h -23.65233 q -19.51318,0 -33.40892,-13.89575 -13.89575,-13.89575 -13.89575,-33.40892 v -236.52335 q 0,-19.51318 13.89575,-33.40892 13.89574,-13.89575 33.40892,-13.89575 h 23.65233 v -47.30467 h 47.30467 v 47.30467 h 94.60934 v -47.30467 h 47.30467 v 47.30467 h 94.60934 v -47.30467 h 47.30467 v 47.30467 h 23.65233 q 19.51318,0 33.40893,13.89575 13.89574,13.89574 13.89574,33.40892 v 236.52335 q 0,19.51317 -13.89574,33.40892 -13.89575,13.89575 -33.40893,13.89575 h -23.65233 v 47.30466 H 586.5742 v -47.30466 h -94.60934 v 47.30466 h -47.30467 v -47.30466 h -94.60934 v 47.30466 z"
     id="path1"
     style="fill:#ffffff;stroke-width:0.591308" />
</svg>
